# xmcd CD database file
#
# Track frame offsets:
#	150
#	17558
#	41991
#	60225
#	84099
#	104743
#	136900
#	165403
#	185321
#	209342
#	239683
#	259988
#	292267
#	312625
#
# Disc length: 4530 seconds
#
# Revision: 0
# Processed by: cddbd v1.5.1PL0 Copyright (c) Steve Scherf et al.
# Submitted via: CDex 1.51
#
DISCID=cc11b00e
DTITLE=Various Artist - DJ Nik Volume 2
DYEAR=2005
DGENRE=Salsa
TTITLE0=Ray Barretto - Sola Te Dejare
TTITLE1=Johnny Polanco y su Conjunto Amistad - Guanguanco con Rumba
TTITLE2=Alfredo Valdes - Busca El Arfiler
TTITLE3=Louis Ramirez - Las Parabolas
TTITLE4=Africando - Ken Moussoul Guis Li
TTITLE5=Hector Lavoe - Alejate
TTITLE6=Alfredo De La Fe - Latin New York
TTITLE7=Markolino Dimond y Frankie Dante (canta Chivirico Davila) - Sabroson
TTITLE8=Johnny Blas - Los Huesos
TTITLE9=Orquestra la Palabra - Lady
TTITLE10=Justo Betancourt - Soy Professional
TTITLE11=Monguito - Perla Fina
TTITLE12=Roberto Torres - No Aprietes Tanto
TTITLE13=Louis Ramirez y Pete Bonet - De'se Mismo Trago
EXTD=YEAR: 2005
EXTT0=
EXTT1=
EXTT2=
EXTT3=
EXTT4=
EXTT5=
EXTT6=
EXTT7=
EXTT8=
EXTT9=
EXTT10=
EXTT11=
EXTT12=
EXTT13=
PLAYORDER=
